Coordinates
version=1
nRows=8
nColumns=36
inDegrees=yes

Units are S.I. units (second, meters, Newtons, ...)
If the header above contains a line with 'inDegrees', this indicates whether rotational values are in degrees (yes) or radians (no).

endheader
time	pelvis_tilt	pelvis_list	pelvis_rotation	pelvis_tx	pelvis_ty	pelvis_tz	hip_flexion_r	hip_adduction_r	hip_rotation_r	knee_angle_r	knee_angle_r_beta	ankle_angle_r	subtalar_angle_r	mtp_angle_r	hip_flexion_l	hip_adduction_l	hip_rotation_l	knee_angle_l	knee_angle_l_beta	ankle_angle_l	subtalar_angle_l	mtp_angle_l	lumbar_extension	lumbar_bending	lumbar_rotation	arm_flex_r	arm_add_r	arm_rot_r	elbow_flex_r	pro_sup_r	arm_flex_l	arm_add_l	arm_rot_l	elbow_flex_l	pro_sup_l
      1.78333330	     -3.12445715	     -1.82515946	      2.42181372	      0.24765240	      0.82327877	     -0.04279163	     18.91811716	     -6.68211552	     -8.73820459	     32.24389550	      0.56276214	     12.46478170	     -9.11369800	     -7.49999987	     23.51637881	    -13.48622106	     -7.31101088	     36.52903579	      0.63755195	      9.50396187	    -12.98992867	     -7.49999987	    -18.27825410	      0.98544420	     -0.08508738	    111.69963226	      5.76899208	     66.75228999	    119.79069945	    102.86043156	     96.86559747	      8.94628124	     53.44545200	    131.80752689	     89.31655652
      1.80000000	     -4.28993437	     -1.76150475	      2.37968081	      0.24829268	      0.82903429	     -0.04670687	     18.53405423	     -6.69514462	     -9.19801733	     29.46814686	      0.51431619	     11.39141393	     -8.73857640	     -7.49999987	     22.56872933	    -12.88143114	     -7.89321870	     33.26248617	      0.58053990	      8.92349354	    -11.87998431	     -7.49999987	    -16.30354087	      1.03022471	     -0.23240509	    111.69921428	      5.53812324	     66.60267161	    119.27193728	    102.96775779	     96.78543909	      9.23038838	     52.33729601	    131.65855086	     89.27276462
      1.81666670	     -4.62223228	     -1.72731035	      2.26441710	      0.25181698	      0.83208126	     -0.04625376	     17.04770062	     -6.38700251	     -9.31366025	     26.25412902	      0.45822099	     10.33124445	     -8.59086651	     -7.49999987	     20.95337619	    -12.62656251	     -9.02966523	     30.02173261	      0.52397808	      8.16841455	    -10.83890852	     -7.49999987	    -15.04488569	      0.92676245	     -0.06160000	    111.13432856	      5.01027383	     65.66858394	    120.21887384	    102.74384662	     96.34042935	      9.79854208	     51.07039957	    130.30296488	     88.54138036
      1.83333330	     -5.14607819	     -1.64363630	      2.30945144	      0.25760668	      0.83681940	     -0.04830732	     15.58206811	     -6.26271416	    -10.10723261	     23.08341438	      0.40288158	      9.15551723	     -8.23848846	     -7.49999987	     19.80624900	    -12.27663374	    -10.16463014	     27.33415283	      0.47707097	      6.99357363	     -9.88703823	     -7.49999987	    -13.22593815	      0.75308770	      0.07169245	    109.99823232	      4.68432608	     65.02212927	    121.25721466	    103.76495079	     95.39687141	     10.03393330	     51.50797533	    128.23124751	     88.20961472
      1.85000000	     -5.58506408	     -1.46347033	      2.57130052	      0.25996372	      0.84099059	     -0.04970943	     14.15236602	     -6.28470972	    -10.82771048	     19.85843158	      0.34659502	      7.58596780	     -7.88415093	     -7.49999987	     18.56401285	    -11.72498577	    -11.19520290	     24.41629039	      0.42614466	      6.14576882	     -8.55191430	     -7.49999987	    -11.77919993	      0.72719924	      0.04831191	    109.19390765	      4.65492414	     64.60510892	    121.89006039	    103.90960928	     94.52454609	     10.30567384	     50.92370988	    128.37668178	     87.58692535
      1.86666670	     -5.94278797	     -1.27907449	      2.49782424	      0.26349343	      0.84275912	     -0.05141709	     12.71084516	     -6.28875322	    -11.52028551	     16.93235532	      0.29552535	      6.64527190	     -6.88661420	     -7.49999987	     17.23135863	    -11.17764552	    -11.95976554	     21.69913255	      0.37872131	      5.94381443	     -6.86360338	     -7.49999987	    -10.47196940	      0.54295795	      0.26951691	    108.35859568	      4.81058032	     64.46232431	    122.33316384	    104.84254316	     93.81733041	     11.15662434	     49.86023958	    130.95058893	     87.59101366
      1.88333330	     -6.27979220	     -1.10736968	      2.39656828	      0.26740700	      0.84550145	     -0.05233126	     11.28645010	     -6.22353868	    -12.18619339	     13.99610989	      0.24427820	      5.65716186	     -5.85116264	     -7.49999987	     15.86449460	    -10.65320153	    -13.14950409	     18.92247076	      0.33025942	      5.56540647	     -5.16796408	     -7.49999987	     -9.33011020	      0.45472343	      0.62827246	    107.37249951	      4.81420258	     64.14014664	    123.39127359	    104.97337889	     93.15567026	     11.74037814	     49.64531302	    132.24104727	     87.93554270
      1.90000000	     -6.52859173	     -0.88332674	      2.30189495	      0.27064866	      0.84631660	     -0.05111930	      9.69153754	     -6.10860775	    -13.08941802	     11.01718780	      0.19228620	      5.48408281	     -4.11104881	     -7.49999987	     14.56820040	    -10.14682597	    -14.15022600	     16.43393662	      0.28682630	      5.09239679	     -4.03267467	     -7.49999987	     -8.24520175	      0.18706321	      0.91182453	    106.39374909	      4.74375999	     64.27217831	    123.17433626	    105.94103149	     92.43683480	     11.94097127	     49.52634969	    132.63282946	     88.45575375
